<?xml version="1.0" encoding="UTF-8" standalone="no"?>
<svg
   xmlns:dc="http://purl.org/dc/elements/1.1/"
   xmlns:cc="http://creativecommons.org/ns#"
   xmlns:rdf="http://www.w3.org/1999/02/22-rdf-syntax-ns#"
   xmlns:svg="http://www.w3.org/2000/svg"
   xmlns="http://www.w3.org/2000/svg"
   id="svg843"
   version="1.1"
   viewBox="0 0 100 100"
   height="100"
   width="100">
  <metadata
     id="metadata849">
    <rdf:RDF>
      <cc:Work
         rdf:about="">
        <dc:format>image/svg+xml</dc:format>
        <dc:type
           rdf:resource="http://purl.org/dc/dcmitype/StillImage" />
        <dc:title></dc:title>
      </cc:Work>
    </rdf:RDF>
  </metadata>
  <defs
     id="defs847" />
  <path
     d="M 90.913,15.322 78.863,1.73 c 0,0 -7.286,5.604 -14.852,5.604 C 56.444,7.335 50,1.73 50,1.73 50,1.73 43.555,7.334 35.989,7.334 28.422,7.334 21.137,1.73 21.137,1.73 L 9.086,15.322 c 0,0 6.214,3.362 6.214,11.203 0,7.84 -5.653,9.674 -5.653,26.347 C 9.647,83.979 50,98.27 50,98.27 50,98.27 90.353,83.979 90.353,52.873 90.353,36.2 84.7,34.366 84.7,26.526 84.699,18.684 90.913,15.322 90.913,15.322 Z M 41.344,67.558 41.34,67.554 41.336,67.558 28.684,54.904 l 5.142,-5.142 7.515,7.514 24.834,-24.834 5.142,5.143 z"
     id="path835"
     style="fill:#23843e" />
</svg>
